<?xml version="1.0" encoding="UTF-8"?>
<svg xmlns="http://www.w3.org/2000/svg" width="350" height="100" viewBox="0 0 350 100">
  <!-- Icon -->
  <g stroke="#FF9800" stroke-width="4" fill="none" stroke-linecap="round" stroke-linejoin="round">
    <rect x="10" y="25" width="40" height="50" rx="6"/>
    <!-- pins -->
    <line x1="20" y1="10" x2="20" y2="25"/>
    <line x1="30" y1="10" x2="30" y2="25"/>
    <line x1="10" y1="35" x2="0" y2="35"/>
    <line x1="10" y1="45" x2="0" y2="45"/>
    <line x1="50" y1="35" x2="60" y2="35"/>
    <line x1="50" y1="45" x2="60" y2="45"/>
    <!-- brain -->
    <path d="M30 35c-5 0-9 4-9 9v4a9 9 0 009 9 9 9 0 009-9v-4c0-5-4-9-9-9z"/>
    <!-- antenna -->
    <line x1="60" y1="25" x2="60" y2="10"/>
    <circle cx="60" cy="5" r="5" fill="#FF9800"/>
    <path d="M50 10a10 10 0 0120 0"/>
  </g>

  <!-- Orange tag for AI -->
  <rect x="90" y="25" width="60" height="50" rx="6" fill="#FF9800"/>
  <text x="105" y="60" font-family="Segoe UI, Arial, sans-serif" font-size="36" fill="#000000" font-weight="bold">AI</text>

  <!-- Remaining text -->
  <text x="160" y="60" font-family="Segoe UI, Arial, sans-serif" font-size="36" fill="#000000">每日简报</text>
</svg>
